<mxfile host="app.diagrams.net" agent="Mozilla/5.0 (Windows NT 10.0; Win64; x64) AppleWebKit/537.36 (KHTML, like Gecko) Chrome/128.0.0.0 Safari/537.36 Edg/128.0.0.0" version="24.7.12">
  <diagram name="Page-1" id="bFhdwcrHnx2u6vySeAPQ">
    <mxGraphModel dx="1472" dy="1106" grid="1" gridSize="10" guides="1" tooltips="1" connect="1" arrows="1" fold="1" page="1" pageScale="1" pageWidth="850" pageHeight="1100" math="0" shadow="0">
      <root>
        <mxCell id="0" />
        <mxCell id="1" parent="0" />
        <mxCell id="KSG41hr1A-D4UAttYeLq-2" value="" style="rounded=0;whiteSpace=wrap;html=1;" vertex="1" parent="1">
          <mxGeometry x="40" y="40" width="760" height="1050" as="geometry" />
        </mxCell>
        <mxCell id="KSG41hr1A-D4UAttYeLq-3" value="" style="rounded=0;whiteSpace=wrap;html=1;" vertex="1" parent="1">
          <mxGeometry x="40" y="40" width="760" height="170" as="geometry" />
        </mxCell>
        <mxCell id="KSG41hr1A-D4UAttYeLq-6" value="&lt;h1 style=&quot;margin-top: 0px;&quot;&gt;&lt;font style=&quot;font-size: 36px;&quot;&gt;Header&lt;/font&gt;&lt;/h1&gt;" style="text;html=1;whiteSpace=wrap;overflow=hidden;rounded=0;align=center;" vertex="1" parent="1">
          <mxGeometry x="40" y="40" width="760" height="170" as="geometry" />
        </mxCell>
        <mxCell id="KSG41hr1A-D4UAttYeLq-7" value="" style="shape=process;whiteSpace=wrap;html=1;backgroundOutline=1;" vertex="1" parent="1">
          <mxGeometry x="420" y="410" width="380" height="200" as="geometry" />
        </mxCell>
        <mxCell id="KSG41hr1A-D4UAttYeLq-8" value="" style="shape=process;whiteSpace=wrap;html=1;backgroundOutline=1;" vertex="1" parent="1">
          <mxGeometry x="40" y="210" width="380" height="200" as="geometry" />
        </mxCell>
        <mxCell id="KSG41hr1A-D4UAttYeLq-9" value="" style="shape=process;whiteSpace=wrap;html=1;backgroundOutline=1;" vertex="1" parent="1">
          <mxGeometry x="40" y="610" width="380" height="200" as="geometry" />
        </mxCell>
        <mxCell id="KSG41hr1A-D4UAttYeLq-10" value="" style="shape=process;whiteSpace=wrap;html=1;backgroundOutline=1;" vertex="1" parent="1">
          <mxGeometry x="420" y="810" width="380" height="200" as="geometry" />
        </mxCell>
        <mxCell id="KSG41hr1A-D4UAttYeLq-11" value="" style="rounded=0;whiteSpace=wrap;html=1;" vertex="1" parent="1">
          <mxGeometry x="40" y="1010" width="760" height="80" as="geometry" />
        </mxCell>
        <mxCell id="KSG41hr1A-D4UAttYeLq-13" value="&lt;h1 style=&quot;margin-top: 0px;&quot;&gt;&lt;font style=&quot;font-size: 18px;&quot;&gt;Footer&lt;/font&gt;&lt;/h1&gt;&lt;div&gt;&lt;font style=&quot;font-size: 14px;&quot;&gt;Business Contact Information&lt;/font&gt;&lt;/div&gt;" style="text;html=1;whiteSpace=wrap;overflow=hidden;rounded=0;align=center;" vertex="1" parent="1">
          <mxGeometry x="40" y="1010" width="760" height="80" as="geometry" />
        </mxCell>
        <mxCell id="KSG41hr1A-D4UAttYeLq-14" value="&lt;h1 style=&quot;margin-top: 0px;&quot;&gt;Business Owner&#39;s Background&lt;/h1&gt;" style="text;html=1;whiteSpace=wrap;overflow=hidden;rounded=0;" vertex="1" parent="1">
          <mxGeometry x="420" y="210" width="380" height="200" as="geometry" />
        </mxCell>
        <mxCell id="KSG41hr1A-D4UAttYeLq-15" value="&lt;h1 style=&quot;margin-top: 0px;&quot;&gt;Business Product Information&lt;/h1&gt;" style="text;html=1;whiteSpace=wrap;overflow=hidden;rounded=0;" vertex="1" parent="1">
          <mxGeometry x="40" y="810" width="380" height="200" as="geometry" />
        </mxCell>
        <mxCell id="KSG41hr1A-D4UAttYeLq-16" value="&lt;h1 style=&quot;margin-top: 0px;&quot;&gt;Business Products&lt;/h1&gt;" style="text;html=1;whiteSpace=wrap;overflow=hidden;rounded=0;" vertex="1" parent="1">
          <mxGeometry x="420" y="610" width="380" height="200" as="geometry" />
        </mxCell>
        <mxCell id="KSG41hr1A-D4UAttYeLq-17" value="&lt;h1 style=&quot;margin-top: 0px;&quot;&gt;Business History/Background&lt;/h1&gt;" style="text;html=1;whiteSpace=wrap;overflow=hidden;rounded=0;" vertex="1" parent="1">
          <mxGeometry x="40" y="410" width="380" height="200" as="geometry" />
        </mxCell>
        <mxCell id="KSG41hr1A-D4UAttYeLq-18" value="Logo Photo" style="text;html=1;align=center;verticalAlign=middle;whiteSpace=wrap;rounded=0;" vertex="1" parent="1">
          <mxGeometry x="40" y="100" width="760" height="110" as="geometry" />
        </mxCell>
        <mxCell id="KSG41hr1A-D4UAttYeLq-19" value="Photo of Products" style="text;html=1;align=center;verticalAlign=middle;whiteSpace=wrap;rounded=0;" vertex="1" parent="1">
          <mxGeometry x="80" y="610" width="300" height="200" as="geometry" />
        </mxCell>
        <mxCell id="KSG41hr1A-D4UAttYeLq-20" value="Business where it started photo" style="text;html=1;align=center;verticalAlign=middle;whiteSpace=wrap;rounded=0;" vertex="1" parent="1">
          <mxGeometry x="460" y="410" width="300" height="200" as="geometry" />
        </mxCell>
        <mxCell id="KSG41hr1A-D4UAttYeLq-21" value="Photo of Product information" style="text;html=1;align=center;verticalAlign=middle;whiteSpace=wrap;rounded=0;" vertex="1" parent="1">
          <mxGeometry x="460" y="810" width="300" height="200" as="geometry" />
        </mxCell>
        <mxCell id="KSG41hr1A-D4UAttYeLq-22" value="Photo of Business Owner" style="text;html=1;align=center;verticalAlign=middle;whiteSpace=wrap;rounded=0;" vertex="1" parent="1">
          <mxGeometry x="80" y="210" width="300" height="200" as="geometry" />
        </mxCell>
      </root>
    </mxGraphModel>
  </diagram>
</mxfile>
